<svg xmlns="http://www.w3.org/2000/svg" viewBox="0 0 512 512">
  <!-- Full-bleed app mark for maskable (Android) and apple-touch icons: the OS rounds the corners. Generated from icon.svg. -->
  <defs>
    <radialGradient id="felt" cx="50%" cy="35%" r="75%">
      <stop offset="0" stop-color="#16614a"/><stop offset=".6" stop-color="#0d3b2e"/><stop offset="1" stop-color="#072319"/>
    </radialGradient>
    <filter id="sh" x="-20%" y="-20%" width="140%" height="140%"><feDropShadow dx="0" dy="10" stdDeviation="10" flood-color="#000" flood-opacity=".45"/></filter>
    <path id="heart" d="M50 88C20 65 5 48 5 30 5 15 17 5 30 5c10 0 17 6 20 13 3-7 10-13 20-13 13 0 25 10 25 25 0 18-15 35-45 58z"/>
    <path id="spade" d="M50 5c30 25 45 40 45 55 0 15-12 23-24 23-9 0-16-5-19-11l6 23H42l6-23c-3 6-10 11-19 11C17 83 5 75 5 60 5 45 20 30 50 5z"/>
    <path id="diamond" d="M50 4 88 50 50 96 12 50z"/>
    <g id="card"><rect x="-78" y="-110" width="156" height="220" rx="20" fill="#fff"/></g>
  </defs>
  <rect width="512" height="512" fill="url(#felt)"/>
  <circle cx="256" cy="256" r="200" fill="none" stroke="#f2c14e" stroke-width="10" opacity=".85"/>
  <g transform="translate(256 256) scale(.78) translate(-256 -256)">
  
  
  <g filter="url(#sh)">
    <g transform="translate(168 262) rotate(-16)"><use href="#card"/><use href="#heart" fill="#d42a3a" transform="translate(-68 -92) scale(.5)"/></g>
    <g transform="translate(344 262) rotate(16)"><use href="#card"/><use href="#diamond" fill="#d42a3a" transform="translate(18 -92) scale(.5)"/></g>
    <g transform="translate(256 238)"><use href="#card"/><use href="#spade" fill="#10271f" transform="translate(-44 -48) scale(.88)"/></g>
  </g>
  <circle cx="256" cy="420" r="30" fill="#f2c14e"/>
  <circle cx="256" cy="420" r="30" fill="none" stroke="#1d1600" stroke-width="6" stroke-dasharray="10 9.6" opacity=".55"/>
  <circle cx="256" cy="420" r="16" fill="none" stroke="#1d1600" stroke-width="3" opacity=".55"/>
</g>
</svg>
